<mxfile host="app.diagrams.net" modified="2023-12-28T11:55:32.503Z" agent="Mozilla/5.0 (Windows NT 10.0; Win64; x64) AppleWebKit/537.36 (KHTML, like Gecko) Chrome/121.0.0.0 Safari/537.36 Edg/121.0.0.0/8mqFuKuL-88" version="22.1.15" etag="XWQ-ivz8QsSvmhtw_aEo" type="github">
  <diagram name="Page-1" id="_IeTKaZDg4Q95zRLse83">
    <mxGraphModel>
      <root>
        <mxCell id="0" />
        <mxCell id="1" parent="0" />
      </root>
    </mxGraphModel>
  </diagram>
</mxfile>
